<svg width="416" height="416" viewBox="0 0 416 416" fill="none" xmlns="http://www.w3.org/2000/svg">
<path d="M23.5036 142.928C30.3174 113.883 45.1046 87.3172 66.2 66.2218C87.2955 45.1263 113.861 30.3391 142.906 23.5253C185.701 13.4987 230.245 13.4987 273.04 23.5253C302.085 30.3391 328.65 45.1263 349.746 66.2218C370.841 87.3172 385.629 113.883 392.442 142.928C402.469 185.723 402.469 230.267 392.442 273.061C385.629 302.106 370.841 328.672 349.746 349.768C328.65 370.863 302.085 385.65 273.04 392.464C230.245 402.491 185.701 402.491 142.906 392.464C113.861 385.65 87.2955 370.863 66.2 349.768C45.1046 328.672 30.3174 302.106 23.5036 273.061C13.4636 230.265 13.4636 185.725 23.5036 142.928Z" fill="#DDDDDD"/>
<path fill-rule="evenodd" clip-rule="evenodd" d="M269.37 39.0987C228.986 29.6272 186.959 29.6272 146.575 39.0987C120.425 45.2305 96.5061 58.5425 77.5134 77.5353C58.5206 96.528 45.2086 120.447 39.0768 146.597C29.6053 186.981 29.6053 229.008 39.0768 269.392C45.2086 295.543 58.5206 319.461 77.5134 338.454C96.5061 357.447 120.425 370.759 146.575 376.891C186.959 386.363 228.986 386.363 269.37 376.891C295.521 370.759 319.439 357.447 338.432 338.454C357.425 319.461 370.737 295.543 376.869 269.392C386.341 229.008 386.341 186.981 376.869 146.597C370.737 120.447 357.425 96.528 338.432 77.5353C319.439 58.5425 295.521 45.2305 269.37 39.0987ZM139.279 7.952C184.476 -2.65067 231.512 -2.65067 276.709 7.952C308.655 15.446 337.874 31.7099 361.076 54.9123C384.279 78.1147 400.543 107.334 408.037 139.28C418.639 184.476 418.639 231.513 408.037 276.709C400.543 308.655 384.279 337.875 361.076 361.077C337.874 384.279 308.655 400.543 276.709 408.037C231.512 418.639 184.476 418.639 139.279 408.037C107.333 400.543 78.1141 384.279 54.9117 361.077C31.7093 337.875 15.4454 308.655 7.95142 276.709C-2.65047 231.513 -2.65047 184.476 7.95142 139.28C15.4454 107.334 31.7093 78.1147 54.9117 54.9123C78.1141 31.7099 107.333 15.446 139.279 7.952ZM185.999 119.013C188.996 122.013 190.679 126.08 190.679 130.32C190.679 134.56 188.996 138.627 185.999 141.627L141.626 186C138.626 188.996 134.559 190.679 130.319 190.679C126.079 190.679 122.013 188.996 119.013 186L96.8261 163.813C93.9998 160.78 92.4612 156.769 92.5344 152.624C92.6075 148.478 94.2867 144.524 97.2182 141.592C100.15 138.661 104.105 136.981 108.25 136.908C112.395 136.835 116.406 138.374 119.439 141.2L130.319 152.08L163.386 119.013C166.386 116.017 170.453 114.334 174.693 114.334C178.933 114.334 182.999 116.017 185.999 119.013ZM214.181 163.6C214.181 159.357 215.866 155.287 218.867 152.286C221.868 149.286 225.937 147.6 230.181 147.6H307.855C312.099 147.6 316.169 149.286 319.169 152.286C322.17 155.287 323.855 159.357 323.855 163.6C323.855 167.843 322.17 171.913 319.169 174.914C316.169 177.914 312.099 179.6 307.855 179.6H230.202C225.959 179.6 221.889 177.914 218.888 174.914C215.888 171.913 214.181 167.843 214.181 163.6ZM186.021 229.968C189.017 232.968 190.7 237.035 190.7 241.275C190.7 245.515 189.017 249.581 186.021 252.581L141.647 296.976C140.162 298.463 138.397 299.642 136.455 300.447C134.514 301.252 132.432 301.666 130.33 301.666C128.228 301.666 126.147 301.252 124.205 300.447C122.263 299.642 120.499 298.463 119.013 296.976L96.8261 274.789C95.2541 273.325 93.9933 271.558 93.1188 269.595C92.2443 267.633 91.774 265.514 91.7361 263.366C91.6982 261.218 92.0934 259.084 92.8981 257.091C93.7028 255.099 94.9006 253.289 96.4199 251.77C97.9393 250.251 99.7491 249.053 101.741 248.248C103.734 247.443 105.868 247.048 108.016 247.086C110.164 247.124 112.283 247.594 114.246 248.469C116.208 249.343 117.975 250.604 119.439 252.176L130.319 263.056L163.386 229.989C166.386 226.993 170.453 225.31 174.693 225.31C178.933 225.31 182.999 226.993 185.999 229.989L186.021 229.968ZM214.181 274.555C214.181 270.311 215.866 266.242 218.867 263.241C221.868 260.24 225.937 258.555 230.181 258.555H307.855C312.099 258.555 316.169 260.24 319.169 263.241C322.17 266.242 323.855 270.311 323.855 274.555C323.855 278.798 322.17 282.868 319.169 285.868C316.169 288.869 312.099 290.555 307.855 290.555H230.202C225.959 290.555 221.889 288.869 218.888 285.868C215.888 282.868 214.181 278.798 214.181 274.555Z" fill="black"/>
</svg>
